# xmcd
#
# Track frame offsets:
#	182
#	15905
#	32392
#	50247
#	65277
#	83612
#	98425
#	112060
#	128980
#	144370
#
# Disc length: 2139 seconds
#
# Revision: 3
# Processed by: cddbd v1.5.2PL0 Copyright (c) Steve Scherf et al.
# Submitted via: audiograbber 1.83.01
#
DISCID=7508590a
DTITLE=Linda Davis - Some Things Are Meant To Be
DYEAR=1995
DGENRE=Oldies
TTITLE0=Some Things Are Meant To Be
TTITLE1=Love Story In The Making
TTITLE2=Walk Away
TTITLE3=Always Will
TTITLE4=Neither One Of Us
TTITLE5=She Doesn't Ask
TTITLE6=Cast Iron Heart
TTITLE7=There Isn't One
TTITLE8=What Do I Know
TTITLE9=If I Could Live Your Life
EXTD=YEAR: 1995 ID3G: 2
EXTT0=
EXTT1=
EXTT2=
EXTT3=
EXTT4=
EXTT5=
EXTT6=
EXTT7=
EXTT8=
EXTT9=
PLAYORDER=
